<mxfile host="app.diagrams.net" modified="2024-06-23T17:36:22.970Z" agent="Mozilla/5.0 (Windows NT 10.0; Win64; x64) AppleWebKit/537.36 (KHTML, like Gecko) Chrome/123.0.0.0 Safari/537.36 OPR/109.0.0.0" etag="c98enrefv50KSAX7qn1b" version="24.6.2" type="device">
  <diagram name="PÃ¡gina-1" id="RTHOI3YeDaNTPj88zE4c">
    <mxGraphModel dx="2098" dy="2304" grid="1" gridSize="10" guides="1" tooltips="1" connect="1" arrows="1" fold="1" page="1" pageScale="1" pageWidth="827" pageHeight="1169" math="0" shadow="0">
      <root>
        <mxCell id="0" />
        <mxCell id="1" parent="0" />
        <mxCell id="2" value="Pedido de tecido" style="whiteSpace=wrap;strokeWidth=2;fontSize=24;shape=ellipse;perimeter=ellipsePerimeter;html=1;" parent="1" vertex="1">
          <mxGeometry x="20" y="-500" width="240" height="110" as="geometry" />
        </mxCell>
        <mxCell id="3" value="Recebimento de pedido" style="rounded=1;absoluteArcSize=1;arcSize=14;whiteSpace=wrap;strokeWidth=2;fontSize=24;" parent="1" vertex="1">
          <mxGeometry x="48.5" y="-250" width="185" height="110" as="geometry" />
        </mxCell>
        <mxCell id="Thv53E5XRqpWM9f90BtH-18" style="edgeStyle=orthogonalEdgeStyle;rounded=0;orthogonalLoop=1;jettySize=auto;html=1;entryX=0.5;entryY=0;entryDx=0;entryDy=0;" parent="1" source="4" target="6" edge="1">
          <mxGeometry relative="1" as="geometry" />
        </mxCell>
        <mxCell id="Thv53E5XRqpWM9f90BtH-20" style="edgeStyle=orthogonalEdgeStyle;rounded=0;orthogonalLoop=1;jettySize=auto;html=1;entryX=0.5;entryY=0;entryDx=0;entryDy=0;" parent="1" source="4" target="5" edge="1">
          <mxGeometry relative="1" as="geometry">
            <mxPoint x="139" y="1300" as="targetPoint" />
            <Array as="points">
              <mxPoint x="139" y="821" />
              <mxPoint x="140" y="1310" />
            </Array>
          </mxGeometry>
        </mxCell>
        <mxCell id="4" value="Disponibilidade de estoque" style="rhombus;strokeWidth=2;whiteSpace=wrap;fontSize=24;" parent="1" vertex="1">
          <mxGeometry x="18" y="100" width="242" height="242" as="geometry" />
        </mxCell>
        <mxCell id="5" value="Envio do tecido" style="whiteSpace=wrap;strokeWidth=2;fontSize=24;" parent="1" vertex="1">
          <mxGeometry x="3" y="1390" width="274" height="170" as="geometry" />
        </mxCell>
        <mxCell id="Thv53E5XRqpWM9f90BtH-22" style="edgeStyle=orthogonalEdgeStyle;rounded=0;orthogonalLoop=1;jettySize=auto;html=1;entryX=0.5;entryY=0;entryDx=0;entryDy=0;" parent="1" source="6" target="7" edge="1">
          <mxGeometry relative="1" as="geometry">
            <Array as="points">
              <mxPoint x="524" y="500" />
              <mxPoint x="524" y="500" />
            </Array>
          </mxGeometry>
        </mxCell>
        <mxCell id="6" value="Encomenda de tecido" style="whiteSpace=wrap;strokeWidth=2;fontSize=24;" parent="1" vertex="1">
          <mxGeometry x="390" y="330" width="260" height="130" as="geometry" />
        </mxCell>
        <mxCell id="Thv53E5XRqpWM9f90BtH-23" style="edgeStyle=orthogonalEdgeStyle;rounded=0;orthogonalLoop=1;jettySize=auto;html=1;entryX=0.5;entryY=0;entryDx=0;entryDy=0;" parent="1" source="7" target="8" edge="1">
          <mxGeometry relative="1" as="geometry">
            <Array as="points">
              <mxPoint x="520" y="800" />
              <mxPoint x="520" y="800" />
            </Array>
          </mxGeometry>
        </mxCell>
        <mxCell id="7" value="Pedido ao fornecedor" style="rounded=1;absoluteArcSize=1;arcSize=14;whiteSpace=wrap;strokeWidth=2;fontSize=24;" parent="1" vertex="1">
          <mxGeometry x="400" y="590" width="249" height="160" as="geometry" />
        </mxCell>
        <mxCell id="8" value="Recebimento do tecido" style="rounded=1;absoluteArcSize=1;arcSize=14;whiteSpace=wrap;strokeWidth=2;fontSize=24;" parent="1" vertex="1">
          <mxGeometry x="390" y="960" width="260" height="150" as="geometry" />
        </mxCell>
        <mxCell id="9" value="" style="curved=1;startArrow=none;endArrow=block;exitX=0.5016371783088235;exitY=1;entryX=0.4985008445945946;entryY=0;" parent="1" source="2" target="3" edge="1">
          <mxGeometry relative="1" as="geometry">
            <Array as="points" />
          </mxGeometry>
        </mxCell>
        <mxCell id="10" value="" style="curved=1;startArrow=none;endArrow=block;exitX=0.4985008445945946;exitY=1;entryX=0.5009200671487604;entryY=0;" parent="1" source="3" target="4" edge="1">
          <mxGeometry relative="1" as="geometry">
            <Array as="points" />
          </mxGeometry>
        </mxCell>
        <mxCell id="Thv53E5XRqpWM9f90BtH-24" style="edgeStyle=orthogonalEdgeStyle;rounded=0;orthogonalLoop=1;jettySize=auto;html=1;entryX=1.011;entryY=0.588;entryDx=0;entryDy=0;entryPerimeter=0;" parent="1" source="8" target="5" edge="1">
          <mxGeometry relative="1" as="geometry">
            <Array as="points">
              <mxPoint x="530" y="1490" />
            </Array>
          </mxGeometry>
        </mxCell>
      </root>
    </mxGraphModel>
  </diagram>
</mxfile>
